<svg width="303" height="103" viewBox="0 0 303 103" fill="none" xmlns="http://www.w3.org/2000/svg">
<rect width="303" height="102.873" rx="10" fill="#033A64"/>
<path d="M120.356 43.7939C118.74 43.7939 117.38 43.3779 116.276 42.5459C115.188 41.7139 114.38 40.6419 113.852 39.3299C113.324 38.0179 113.06 36.6339 113.06 35.1779C113.06 33.6899 113.324 32.2899 113.852 30.9779C114.396 29.6499 115.228 28.5699 116.348 27.7379C117.484 26.8899 118.892 26.4659 120.572 26.4659C122.46 26.4659 123.988 26.9859 125.156 28.0259C126.34 29.0499 127.156 30.3539 127.604 31.9379H124.988C124.684 30.9139 124.164 30.1219 123.428 29.5619C122.708 29.0019 121.756 28.7219 120.572 28.7219C118.988 28.7219 117.756 29.3059 116.876 30.4739C116.012 31.6419 115.58 33.2259 115.58 35.2259C115.58 37.2739 116.036 38.8739 116.948 40.0259C117.86 41.1779 119.108 41.7539 120.692 41.7539C121.636 41.7539 122.444 41.5539 123.116 41.1539C123.804 40.7539 124.324 40.2099 124.676 39.5219C125.028 38.8339 125.212 38.0659 125.228 37.2179L125.252 36.6419H120.932V34.8179H127.628V43.6259H125.708V40.9379H125.516C125.276 41.3539 125.02 41.7379 124.748 42.0899C124.492 42.4259 123.988 42.7939 123.236 43.1939C122.484 43.5939 121.524 43.7939 120.356 43.7939ZM136.144 43.7939C134.832 43.7939 133.728 43.4819 132.832 42.8579C131.936 42.2339 131.272 41.4259 130.84 40.4339C130.408 39.4259 130.192 38.3539 130.192 37.2179C130.192 36.0819 130.408 35.0179 130.84 34.0259C131.272 33.0179 131.936 32.2019 132.832 31.5779C133.744 30.9539 134.856 30.6419 136.168 30.6419C137.896 30.6419 139.272 31.2099 140.296 32.3459C141.32 33.4659 141.832 35.0979 141.832 37.2419V37.9379H132.616V38.1059C132.616 38.7459 132.76 39.3459 133.048 39.9059C133.336 40.4659 133.744 40.9219 134.272 41.2739C134.8 41.6099 135.408 41.7779 136.096 41.7779C136.848 41.7779 137.496 41.5939 138.04 41.2259C138.584 40.8419 138.976 40.3299 139.216 39.6899H141.664C141.344 40.8739 140.712 41.8579 139.768 42.6419C138.824 43.4099 137.616 43.7939 136.144 43.7939ZM139.408 36.2339C139.344 34.9379 139.016 34.0019 138.424 33.4259C137.848 32.8339 137.08 32.5379 136.12 32.5379C135.096 32.5379 134.272 32.8739 133.648 33.5459C133.04 34.2179 132.72 35.1139 132.688 36.2339H139.408ZM148.481 32.9459V39.7139C148.481 40.3059 148.505 40.7379 148.553 41.0099C148.617 41.2819 148.769 41.4979 149.009 41.6579C149.265 41.8179 149.681 41.8979 150.257 41.8979C150.657 41.8979 151.049 41.8499 151.433 41.7539V43.5059C151.321 43.5539 151.057 43.6019 150.641 43.6499C150.225 43.6979 149.809 43.7219 149.393 43.7219C148.385 43.7219 147.633 43.5779 147.137 43.2899C146.641 42.9859 146.321 42.6019 146.177 42.1379C146.049 41.6579 145.985 41.0339 145.985 40.2659L146.009 32.9459H143.729V30.9779H146.009V26.8259H148.481V30.9779H151.433V32.9459H148.481ZM160.069 30.9779H162.541V43.6259H160.069V30.9779ZM161.293 28.6739C160.861 28.6739 160.501 28.5299 160.213 28.2419C159.925 27.9539 159.781 27.5939 159.781 27.1619C159.781 26.7299 159.925 26.3699 160.213 26.0819C160.501 25.7939 160.861 25.6499 161.293 25.6499C161.725 25.6499 162.085 25.8019 162.373 26.1059C162.661 26.3939 162.805 26.7459 162.805 27.1619C162.805 27.5779 162.661 27.9379 162.373 28.2419C162.085 28.5299 161.725 28.6739 161.293 28.6739ZM169.926 32.9459V39.7139C169.926 40.3059 169.95 40.7379 169.998 41.0099C170.062 41.2819 170.214 41.4979 170.454 41.6579C170.71 41.8179 171.126 41.8979 171.702 41.8979C172.102 41.8979 172.494 41.8499 172.878 41.7539V43.5059C172.766 43.5539 172.502 43.6019 172.086 43.6499C171.67 43.6979 171.254 43.7219 170.838 43.7219C169.83 43.7219 169.078 43.5779 168.582 43.2899C168.086 42.9859 167.766 42.6019 167.622 42.1379C167.494 41.6579 167.43 41.0339 167.43 40.2659L167.454 32.9459H165.174V30.9779H167.454V26.8259H169.926V30.9779H172.878V32.9459H169.926ZM186.722 43.7939C185.426 43.7939 184.33 43.4899 183.434 42.8819C182.538 42.2739 181.866 41.4739 181.418 40.4819C180.986 39.4739 180.77 38.3939 180.77 37.2419C180.77 36.0739 180.986 34.9939 181.418 34.0019C181.866 32.9939 182.538 32.1859 183.434 31.5779C184.33 30.9539 185.426 30.6419 186.722 30.6419C188.018 30.6419 189.114 30.9539 190.01 31.5779C190.906 32.1859 191.578 32.9939 192.026 34.0019C192.474 34.9939 192.698 36.0659 192.698 37.2179C192.698 38.3699 192.474 39.4499 192.026 40.4579C191.578 41.4499 190.906 42.2579 190.01 42.8819C189.114 43.4899 188.018 43.7939 186.722 43.7939ZM186.722 41.7299C187.826 41.7299 188.682 41.2979 189.29 40.4339C189.914 39.5699 190.226 38.4899 190.226 37.1939C190.226 35.8979 189.914 34.8259 189.29 33.9779C188.682 33.1299 187.826 32.7059 186.722 32.7059C185.634 32.7059 184.778 33.1379 184.154 34.0019C183.53 34.8499 183.218 35.9139 183.218 37.1939C183.218 38.4899 183.522 39.5699 184.13 40.4339C184.754 41.2979 185.618 41.7299 186.722 41.7299ZM195.477 30.9779H197.973V33.1379H198.165C198.469 32.4339 198.965 31.8419 199.653 31.3619C200.341 30.8819 201.189 30.6419 202.197 30.6419C203.285 30.6419 204.181 30.9059 204.885 31.4339C205.589 31.9459 206.101 32.6099 206.421 33.4259C206.741 34.2259 206.901 35.0819 206.901 35.9939V43.6259H204.429V36.3539C204.429 35.2019 204.133 34.3219 203.541 33.7139C202.965 33.1059 202.197 32.8019 201.237 32.8019C200.229 32.8019 199.429 33.1299 198.837 33.7859C198.261 34.4419 197.973 35.2979 197.973 36.3539V43.6259H195.477V30.9779Z" fill="#FDF4ED"/>
<path d="M120.61 73.9213C118.943 73.9213 117.535 73.4963 116.385 72.6463C115.252 71.7796 114.41 70.6629 113.86 69.2963C113.31 67.9296 113.035 66.4796 113.035 64.9463C113.035 63.3796 113.318 61.9046 113.885 60.5213C114.452 59.1379 115.327 58.0213 116.51 57.1713C117.693 56.3046 119.16 55.8713 120.91 55.8713C122.877 55.8713 124.477 56.4129 125.71 57.4963C126.96 58.5796 127.835 59.9629 128.335 61.6463H125.135C124.852 60.6796 124.36 59.9213 123.66 59.3713C122.96 58.8213 122.052 58.5463 120.935 58.5463C119.402 58.5463 118.21 59.1296 117.36 60.2963C116.527 61.4629 116.11 63.0296 116.11 64.9963C116.11 67.0296 116.543 68.6129 117.41 69.7463C118.293 70.8796 119.51 71.4463 121.06 71.4463C122.427 71.4463 123.485 71.0379 124.235 70.2213C125.002 69.3879 125.402 68.3546 125.435 67.1213V66.6213H121.36V64.3963H128.36V73.7213H126.06V71.0213H125.86C125.56 71.6213 125.027 72.2546 124.26 72.9213C123.493 73.5879 122.277 73.9213 120.61 73.9213ZM138.856 73.9213C137.156 73.9213 135.706 73.5296 134.506 72.7463C133.306 71.9629 132.397 70.8963 131.781 69.5463C131.164 68.1796 130.856 66.6463 130.856 64.9463C130.856 63.2463 131.164 61.7129 131.781 60.3463C132.397 58.9629 133.306 57.8713 134.506 57.0713C135.722 56.2713 137.172 55.8713 138.856 55.8713C140.522 55.8713 141.956 56.2713 143.156 57.0713C144.356 57.8713 145.264 58.9546 145.881 60.3213C146.497 61.6879 146.806 63.2296 146.806 64.9463C146.806 66.6463 146.497 68.1796 145.881 69.5463C145.264 70.8963 144.356 71.9629 143.156 72.7463C141.956 73.5296 140.522 73.9213 138.856 73.9213ZM138.856 71.1713C140.339 71.1713 141.497 70.5879 142.331 69.4213C143.164 68.2546 143.581 66.7463 143.581 64.8963C143.581 63.7129 143.397 62.6463 143.031 61.6963C142.664 60.7463 142.122 59.9963 141.406 59.4463C140.706 58.8796 139.856 58.5963 138.856 58.5963C137.856 58.5963 136.997 58.8796 136.281 59.4463C135.564 59.9963 135.014 60.7546 134.631 61.7213C134.264 62.6713 134.081 63.7379 134.081 64.9213C134.081 66.1046 134.264 67.1713 134.631 68.1213C134.997 69.0546 135.539 69.7963 136.256 70.3463C136.972 70.8963 137.839 71.1713 138.856 71.1713ZM157.117 73.9213C155.417 73.9213 153.967 73.5296 152.767 72.7463C151.567 71.9629 150.659 70.8963 150.042 69.5463C149.426 68.1796 149.117 66.6463 149.117 64.9463C149.117 63.2463 149.426 61.7129 150.042 60.3463C150.659 58.9629 151.567 57.8713 152.767 57.0713C153.984 56.2713 155.434 55.8713 157.117 55.8713C158.784 55.8713 160.217 56.2713 161.417 57.0713C162.617 57.8713 163.526 58.9546 164.142 60.3213C164.759 61.6879 165.067 63.2296 165.067 64.9463C165.067 66.6463 164.759 68.1796 164.142 69.5463C163.526 70.8963 162.617 71.9629 161.417 72.7463C160.217 73.5296 158.784 73.9213 157.117 73.9213ZM157.117 71.1713C158.601 71.1713 159.759 70.5879 160.592 69.4213C161.426 68.2546 161.842 66.7463 161.842 64.8963C161.842 63.7129 161.659 62.6463 161.292 61.6963C160.926 60.7463 160.384 59.9963 159.667 59.4463C158.967 58.8796 158.117 58.5963 157.117 58.5963C156.117 58.5963 155.259 58.8796 154.542 59.4463C153.826 59.9963 153.276 60.7546 152.892 61.7213C152.526 62.6713 152.342 63.7379 152.342 64.9213C152.342 66.1046 152.526 67.1713 152.892 68.1213C153.259 69.0546 153.801 69.7963 154.517 70.3463C155.234 70.8963 156.101 71.1713 157.117 71.1713ZM175.029 73.9213C173.362 73.9213 171.954 73.4963 170.804 72.6463C169.671 71.7796 168.829 70.6629 168.279 69.2963C167.729 67.9296 167.454 66.4796 167.454 64.9463C167.454 63.3796 167.737 61.9046 168.304 60.5213C168.871 59.1379 169.746 58.0213 170.929 57.1713C172.112 56.3046 173.579 55.8713 175.329 55.8713C177.296 55.8713 178.896 56.4129 180.129 57.4963C181.379 58.5796 182.254 59.9629 182.754 61.6463H179.554C179.271 60.6796 178.779 59.9213 178.079 59.3713C177.379 58.8213 176.471 58.5463 175.354 58.5463C173.821 58.5463 172.629 59.1296 171.779 60.2963C170.946 61.4629 170.529 63.0296 170.529 64.9963C170.529 67.0296 170.962 68.6129 171.829 69.7463C172.712 70.8796 173.929 71.4463 175.479 71.4463C176.846 71.4463 177.904 71.0379 178.654 70.2213C179.421 69.3879 179.821 68.3546 179.854 67.1213V66.6213H175.779V64.3963H182.779V73.7213H180.479V71.0213H180.279C179.979 71.6213 179.446 72.2546 178.679 72.9213C177.912 73.5879 176.696 73.9213 175.029 73.9213ZM196.843 71.0463V73.7213H186.043L186.018 56.2213H189.068L189.043 71.0463H196.843ZM202.374 58.8963V63.6213H209.499V66.0213H202.374V71.0463H210.649V73.7213H199.349V56.2213H210.649V58.8963H202.374ZM225.594 56.2213C226.994 56.2213 228.161 56.5046 229.094 57.0713C230.028 57.6379 230.711 58.3713 231.144 59.2713C231.594 60.1713 231.819 61.1296 231.819 62.1463C231.819 63.1629 231.603 64.1213 231.169 65.0213C230.736 65.9046 230.053 66.6213 229.119 67.1713C228.186 67.7213 227.011 67.9963 225.594 67.9963H222.269V73.7213H219.294V56.2213H225.594ZM225.144 65.4713C226.194 65.4713 227.078 65.2213 227.794 64.7213C228.511 64.2046 228.869 63.3463 228.869 62.1463C228.869 60.9629 228.511 60.1296 227.794 59.6463C227.094 59.1463 226.211 58.8963 225.144 58.8963H222.269V65.4713H225.144ZM245.085 71.0463V73.7213H234.285L234.26 56.2213H237.31L237.285 71.0463H245.085ZM257.666 69.1463H251.291L249.741 73.7213H246.666L253.066 56.2213H255.916L262.316 73.7213H259.241L257.666 69.1463ZM256.866 66.7963L254.516 59.9963H254.391L252.091 66.7963H256.866ZM267.553 73.7213V67.5713L261.828 56.2213H265.028L269.003 64.3963H269.153L273.078 56.2213H276.303L270.578 67.5713V73.7213H267.553Z" fill="#FDF4ED"/>
<path d="M72.7897 59.6099C80.1457 55.6288 85.7225 52.5953 86.2032 52.3596C87.7409 51.5534 89.3288 49.4203 86.2032 47.7633C85.194 47.2424 79.7607 44.3031 72.7897 40.513L63.126 50.1321L72.7897 59.6099Z" fill="#FFD900"/>
<path d="M63.1259 50.1322L32.3555 80.6985C33.0777 80.7928 33.8932 80.6042 34.8545 80.0833C36.8729 78.9943 58.2689 67.4778 72.7896 59.6123L63.1259 50.1322Z" fill="#F43249"/>
<path d="M63.126 50.1322L72.7897 40.5602C72.7897 40.5602 37.0188 21.3196 34.8546 20.1835C34.0391 19.7073 33.1256 19.5659 32.3077 19.7073L63.126 50.1322Z" fill="#00EE76"/>
<path d="M63.126 50.1322L32.3077 19.7073C31.057 19.9925 30 21.0814 30 23.3089V77.0969C30 79.1357 30.8179 80.6042 32.3556 80.7456L63.126 50.1322Z" fill="#00D3FF"/>
</svg>
