<svg width="303" height="103" viewBox="0 0 303 103" fill="none" xmlns="http://www.w3.org/2000/svg">
<rect width="303" height="103" rx="10" fill="#033A64"/>
<path d="M120.356 44.8145C118.74 44.8145 117.38 44.3985 116.276 43.5665C115.188 42.7345 114.38 41.6625 113.852 40.3505C113.324 39.0385 113.06 37.6545 113.06 36.1985C113.06 34.7105 113.324 33.3105 113.852 31.9985C114.396 30.6705 115.228 29.5905 116.348 28.7585C117.484 27.9105 118.892 27.4865 120.572 27.4865C122.46 27.4865 123.988 28.0065 125.156 29.0465C126.34 30.0705 127.156 31.3745 127.604 32.9585H124.988C124.684 31.9345 124.164 31.1425 123.428 30.5825C122.708 30.0225 121.756 29.7425 120.572 29.7425C118.988 29.7425 117.756 30.3265 116.876 31.4945C116.012 32.6625 115.58 34.2465 115.58 36.2465C115.58 38.2945 116.036 39.8945 116.948 41.0465C117.86 42.1985 119.108 42.7745 120.692 42.7745C121.636 42.7745 122.444 42.5745 123.116 42.1745C123.804 41.7745 124.324 41.2305 124.676 40.5425C125.028 39.8545 125.212 39.0865 125.228 38.2385L125.252 37.6625H120.932V35.8385H127.628V44.6465H125.708V41.9585H125.516C125.276 42.3745 125.02 42.7585 124.748 43.1105C124.492 43.4465 123.988 43.8145 123.236 44.2145C122.484 44.6145 121.524 44.8145 120.356 44.8145ZM136.144 44.8145C134.832 44.8145 133.728 44.5025 132.832 43.8785C131.936 43.2545 131.272 42.4465 130.84 41.4545C130.408 40.4465 130.192 39.3745 130.192 38.2385C130.192 37.1025 130.408 36.0385 130.84 35.0465C131.272 34.0385 131.936 33.2225 132.832 32.5985C133.744 31.9745 134.856 31.6625 136.168 31.6625C137.896 31.6625 139.272 32.2305 140.296 33.3665C141.32 34.4865 141.832 36.1185 141.832 38.2625V38.9585H132.616V39.1265C132.616 39.7665 132.76 40.3665 133.048 40.9265C133.336 41.4865 133.744 41.9425 134.272 42.2945C134.8 42.6305 135.408 42.7985 136.096 42.7985C136.848 42.7985 137.496 42.6145 138.04 42.2465C138.584 41.8625 138.976 41.3505 139.216 40.7105H141.664C141.344 41.8945 140.712 42.8785 139.768 43.6625C138.824 44.4305 137.616 44.8145 136.144 44.8145ZM139.408 37.2545C139.344 35.9585 139.016 35.0225 138.424 34.4465C137.848 33.8545 137.08 33.5585 136.12 33.5585C135.096 33.5585 134.272 33.8945 133.648 34.5665C133.04 35.2385 132.72 36.1345 132.688 37.2545H139.408ZM148.481 33.9665V40.7345C148.481 41.3265 148.505 41.7585 148.553 42.0305C148.617 42.3025 148.769 42.5185 149.009 42.6785C149.265 42.8385 149.681 42.9185 150.257 42.9185C150.657 42.9185 151.049 42.8705 151.433 42.7745V44.5265C151.321 44.5745 151.057 44.6225 150.641 44.6705C150.225 44.7185 149.809 44.7425 149.393 44.7425C148.385 44.7425 147.633 44.5985 147.137 44.3105C146.641 44.0065 146.321 43.6225 146.177 43.1585C146.049 42.6785 145.985 42.0545 145.985 41.2865L146.009 33.9665H143.729V31.9985H146.009V27.8465H148.481V31.9985H151.433V33.9665H148.481ZM160.069 31.9985H162.541V44.6465H160.069V31.9985ZM161.293 29.6945C160.861 29.6945 160.501 29.5505 160.213 29.2625C159.925 28.9745 159.781 28.6145 159.781 28.1825C159.781 27.7505 159.925 27.3905 160.213 27.1025C160.501 26.8145 160.861 26.6705 161.293 26.6705C161.725 26.6705 162.085 26.8225 162.373 27.1265C162.661 27.4145 162.805 27.7665 162.805 28.1825C162.805 28.5985 162.661 28.9585 162.373 29.2625C162.085 29.5505 161.725 29.6945 161.293 29.6945ZM169.927 33.9665V40.7345C169.927 41.3265 169.951 41.7585 169.999 42.0305C170.063 42.3025 170.215 42.5185 170.455 42.6785C170.711 42.8385 171.127 42.9185 171.703 42.9185C172.103 42.9185 172.495 42.8705 172.879 42.7745V44.5265C172.767 44.5745 172.503 44.6225 172.087 44.6705C171.671 44.7185 171.255 44.7425 170.839 44.7425C169.831 44.7425 169.079 44.5985 168.583 44.3105C168.087 44.0065 167.767 43.6225 167.623 43.1585C167.495 42.6785 167.431 42.0545 167.431 41.2865L167.455 33.9665H165.175V31.9985H167.455V27.8465H169.927V31.9985H172.879V33.9665H169.927ZM186.722 44.8145C185.426 44.8145 184.33 44.5105 183.434 43.9025C182.538 43.2945 181.866 42.4945 181.418 41.5025C180.986 40.4945 180.77 39.4145 180.77 38.2625C180.77 37.0945 180.986 36.0145 181.418 35.0225C181.866 34.0145 182.538 33.2065 183.434 32.5985C184.33 31.9745 185.426 31.6625 186.722 31.6625C188.018 31.6625 189.114 31.9745 190.01 32.5985C190.906 33.2065 191.578 34.0145 192.026 35.0225C192.474 36.0145 192.698 37.0865 192.698 38.2385C192.698 39.3905 192.474 40.4705 192.026 41.4785C191.578 42.4705 190.906 43.2785 190.01 43.9025C189.114 44.5105 188.018 44.8145 186.722 44.8145ZM186.722 42.7505C187.826 42.7505 188.682 42.3185 189.29 41.4545C189.914 40.5905 190.226 39.5105 190.226 38.2145C190.226 36.9185 189.914 35.8465 189.29 34.9985C188.682 34.1505 187.826 33.7265 186.722 33.7265C185.634 33.7265 184.778 34.1585 184.154 35.0225C183.53 35.8705 183.218 36.9345 183.218 38.2145C183.218 39.5105 183.522 40.5905 184.13 41.4545C184.754 42.3185 185.618 42.7505 186.722 42.7505ZM195.477 31.9985H197.973V34.1585H198.165C198.469 33.4545 198.965 32.8625 199.653 32.3825C200.341 31.9025 201.189 31.6625 202.197 31.6625C203.285 31.6625 204.181 31.9265 204.885 32.4545C205.589 32.9665 206.101 33.6305 206.421 34.4465C206.741 35.2465 206.901 36.1025 206.901 37.0145V44.6465H204.429V37.3745C204.429 36.2225 204.133 35.3425 203.541 34.7345C202.965 34.1265 202.197 33.8225 201.237 33.8225C200.229 33.8225 199.429 34.1505 198.837 34.8065C198.261 35.4625 197.973 36.3185 197.973 37.3745V44.6465H195.477V31.9985Z" fill="#FDF4ED"/>
<path d="M123.535 70.2028H117.16L115.61 74.7778H112.535L118.935 57.2778H121.785L128.185 74.7778H125.11L123.535 70.2028ZM122.735 67.8528L120.385 61.0528H120.26L117.96 67.8528H122.735ZM136.654 57.2778C138.054 57.2778 139.221 57.5611 140.154 58.1278C141.088 58.6944 141.771 59.4278 142.204 60.3278C142.654 61.2278 142.879 62.1861 142.879 63.2028C142.879 64.2194 142.663 65.1778 142.229 66.0778C141.796 66.9611 141.113 67.6778 140.179 68.2278C139.246 68.7778 138.071 69.0528 136.654 69.0528H133.329V74.7778H130.354V57.2778H136.654ZM136.204 66.5278C137.254 66.5278 138.138 66.2778 138.854 65.7778C139.571 65.2611 139.929 64.4028 139.929 63.2028C139.929 62.0194 139.571 61.1861 138.854 60.7028C138.154 60.2028 137.271 59.9528 136.204 59.9528H133.329V66.5278H136.204ZM151.62 57.2778C153.02 57.2778 154.187 57.5611 155.12 58.1278C156.053 58.6944 156.737 59.4278 157.17 60.3278C157.62 61.2278 157.845 62.1861 157.845 63.2028C157.845 64.2194 157.628 65.1778 157.195 66.0778C156.762 66.9611 156.078 67.6778 155.145 68.2278C154.212 68.7778 153.037 69.0528 151.62 69.0528H148.295V74.7778H145.32V57.2778H151.62ZM151.17 66.5278C152.22 66.5278 153.103 66.2778 153.82 65.7778C154.537 65.2611 154.895 64.4028 154.895 63.2028C154.895 62.0194 154.537 61.1861 153.82 60.7028C153.12 60.2028 152.237 59.9528 151.17 59.9528H148.295V66.5278H151.17ZM171.856 75.0028C170.472 75.0028 169.281 74.7278 168.281 74.1778C167.297 73.6111 166.547 72.8861 166.031 72.0028C165.531 71.1028 165.281 70.1694 165.281 69.2028V69.0528H168.606V69.2028C168.606 69.6694 168.722 70.1444 168.956 70.6278C169.189 71.0944 169.547 71.4944 170.031 71.8278C170.531 72.1444 171.156 72.3028 171.906 72.3028C172.806 72.3028 173.547 72.0694 174.131 71.6028C174.714 71.1361 175.006 70.5111 175.006 69.7278C175.006 69.0611 174.772 68.5278 174.306 68.1278C173.856 67.7278 173.289 67.4611 172.606 67.3278L170.331 66.8778C169.247 66.6444 168.206 66.1861 167.206 65.5028C166.222 64.8028 165.731 63.6361 165.731 62.0028C165.731 60.9694 165.981 60.0694 166.481 59.3028C166.997 58.5361 167.697 57.9528 168.581 57.5528C169.481 57.1361 170.514 56.9278 171.681 56.9278C172.997 56.9278 174.122 57.1861 175.056 57.7028C176.006 58.2194 176.722 58.8861 177.206 59.7028C177.689 60.5194 177.931 61.3778 177.931 62.2778V62.3778H174.606V62.3028C174.606 61.9028 174.506 61.4861 174.306 61.0528C174.122 60.6194 173.797 60.2528 173.331 59.9528C172.881 59.6528 172.289 59.5028 171.556 59.5028C170.706 59.5028 170.031 59.7361 169.531 60.2028C169.031 60.6694 168.781 61.2611 168.781 61.9778C168.781 62.6278 169.006 63.1444 169.456 63.5278C169.906 63.9111 170.489 64.1778 171.206 64.3278L173.381 64.7778C174.664 65.0444 175.781 65.5528 176.731 66.3028C177.697 67.0361 178.181 68.1528 178.181 69.6528C178.181 70.7028 177.906 71.6361 177.356 72.4528C176.822 73.2528 176.072 73.8778 175.106 74.3278C174.156 74.7778 173.072 75.0028 171.856 75.0028ZM192.725 59.9528H187.85V74.7778H184.825V59.9528H179.95V57.2778H192.725V59.9528ZM202.21 74.9778C200.51 74.9778 199.06 74.5861 197.86 73.8028C196.66 73.0194 195.752 71.9528 195.135 70.6028C194.519 69.2361 194.21 67.7028 194.21 66.0028C194.21 64.3028 194.519 62.7694 195.135 61.4028C195.752 60.0194 196.66 58.9278 197.86 58.1278C199.077 57.3278 200.527 56.9278 202.21 56.9278C203.877 56.9278 205.31 57.3278 206.51 58.1278C207.71 58.9278 208.619 60.0111 209.235 61.3778C209.852 62.7444 210.16 64.2861 210.16 66.0028C210.16 67.7028 209.852 69.2361 209.235 70.6028C208.619 71.9528 207.71 73.0194 206.51 73.8028C205.31 74.5861 203.877 74.9778 202.21 74.9778ZM202.21 72.2278C203.694 72.2278 204.852 71.6444 205.685 70.4778C206.519 69.3111 206.935 67.8028 206.935 65.9528C206.935 64.7694 206.752 63.7028 206.385 62.7528C206.019 61.8028 205.477 61.0528 204.76 60.5028C204.06 59.9361 203.21 59.6528 202.21 59.6528C201.21 59.6528 200.352 59.9361 199.635 60.5028C198.919 61.0528 198.369 61.8111 197.985 62.7778C197.619 63.7278 197.435 64.7944 197.435 65.9778C197.435 67.1611 197.619 68.2278 197.985 69.1778C198.352 70.1111 198.894 70.8528 199.61 71.4028C200.327 71.9528 201.194 72.2278 202.21 72.2278ZM218.498 68.2278H215.923V74.7778H212.898V57.2778H219.198C220.598 57.2778 221.765 57.5444 222.698 58.0778C223.631 58.5944 224.315 59.2778 224.748 60.1278C225.198 60.9611 225.423 61.8528 225.423 62.8028C225.423 63.9694 225.098 65.0278 224.448 65.9778C223.798 66.9111 222.823 67.5611 221.523 67.9278L225.673 74.7778H222.473L218.498 68.2278ZM215.923 65.7278H218.748C219.798 65.7278 220.681 65.5028 221.398 65.0528C222.115 64.6028 222.473 63.8528 222.473 62.8028C222.473 61.7528 222.115 61.0194 221.398 60.6028C220.698 60.1694 219.815 59.9528 218.748 59.9528H215.923V65.7278ZM231.475 59.9528V64.6778H238.6V67.0778H231.475V72.1028H239.75V74.7778H228.45V57.2778H239.75V59.9528H231.475Z" fill="#FDF4ED"/>
<path d="M85 62.2449C83.3893 65.6334 82.6132 67.1463 80.5384 70.1427C77.6446 74.3228 73.5575 79.5313 68.4992 79.5757C64.0064 79.6127 62.852 76.8013 56.7485 76.8346C50.6489 76.8642 49.3776 79.6275 44.8809 79.5868C39.8226 79.5424 35.9499 74.8407 33.0522 70.6569C24.952 58.9673 24.1057 45.2432 29.1015 37.9447C32.6505 32.762 38.2548 29.7287 43.5198 29.7287C48.8823 29.7287 52.2557 32.5179 56.6861 32.5179C60.9878 32.5179 63.6086 29.7213 69.8096 29.7213C74.4895 29.7213 79.4581 32.1443 82.9954 36.3244C71.4047 42.3504 73.2845 58.0499 85 62.2449ZM65.1062 25.0529C67.3565 22.308 69.0686 18.4386 68.4485 14.4805C64.7669 14.7209 60.4652 16.9405 57.9497 19.8369C55.6721 22.4634 53.7884 26.3587 54.5177 30.1467C58.5347 30.2614 62.6921 27.9863 65.1062 25.0529Z" fill="white"/>
</svg>
