<svg width="32" height="40" viewBox="0 0 32 40" fill="none" xmlns="http://www.w3.org/2000/svg">
<path d="M16 0.583374C16.7294 0.583374 17.4288 0.873105 17.9446 1.38883C18.4603 1.90456 18.75 2.60403 18.75 3.33337V13.237L27.3264 8.28337C27.9576 7.92445 28.7053 7.8298 29.4061 8.02006C30.1069 8.21033 30.704 8.67007 31.0671 9.29896C31.4302 9.92785 31.5298 10.6748 31.3442 11.3769C31.1586 12.079 30.7028 12.6791 30.0764 13.0464L21.5 18L30.0764 22.9519C30.7028 23.3191 31.1586 23.9193 31.3442 24.6213C31.5298 25.3234 31.4302 26.0704 31.0671 26.6993C30.704 27.3282 30.1069 27.7879 29.4061 27.9782C28.7053 28.1684 27.9576 28.0738 27.3264 27.7149L18.75 22.7649V32.6667C18.75 33.396 18.4603 34.0955 17.9446 34.6112C17.4288 35.127 16.7294 35.4167 16 35.4167C15.2707 35.4167 14.5712 35.127 14.0555 34.6112C13.5398 34.0955 13.25 33.396 13.25 32.6667V22.763L4.6737 27.7167C4.36083 27.9001 4.01477 28.0198 3.65544 28.069C3.29611 28.1181 2.93062 28.0957 2.57999 28.003C2.22937 27.9103 1.90055 27.7491 1.61245 27.5288C1.32436 27.3085 1.08268 27.0334 0.901346 26.7194C0.720007 26.4053 0.602584 26.0584 0.555838 25.6988C0.509092 25.3391 0.533945 24.9738 0.628968 24.6238C0.723991 24.2738 0.887306 23.9461 1.10951 23.6594C1.33172 23.3728 1.60842 23.133 1.9237 22.9537L10.5 18L1.9237 13.0482C1.29723 12.6809 0.841456 12.0808 0.655842 11.3787C0.470228 10.6767 0.56984 9.92969 0.932941 9.3008C1.29604 8.67191 1.89315 8.21216 2.59397 8.0219C3.29478 7.83163 4.04241 7.92629 4.6737 8.28521L13.25 13.2352V3.33337C13.25 2.60403 13.5398 1.90456 14.0555 1.38883C14.5712 0.873105 15.2707 0.583374 16 0.583374Z" fill="#023048"/>
</svg>
